<svg width="147" height="56" viewBox="0 0 147 56" fill="none" xmlns="http://www.w3.org/2000/svg">
<path d="M31.241 4.16641C31.2786 4.09559 31.3801 4.09559 31.4177 4.16641L34.108 9.23506C34.1228 9.26292 34.1499 9.28217 34.181 9.287L40.0034 10.1881C40.085 10.2007 40.117 10.3013 40.0576 10.3587L35.9008 14.3849C35.8773 14.4076 35.8664 14.4404 35.8717 14.4727L36.7821 20.0904C36.7951 20.1705 36.7123 20.2319 36.6394 20.1963L31.3733 17.6205C31.3456 17.6069 31.3131 17.6069 31.2854 17.6205L26.0193 20.1963C25.9464 20.2319 25.8636 20.1705 25.8766 20.0904L26.787 14.4727C26.7923 14.4404 26.7814 14.4076 26.7579 14.3849L22.6011 10.3587C22.5417 10.3013 22.5737 10.2007 22.6553 10.1881L28.4777 9.287C28.5088 9.28217 28.5359 9.26292 28.5507 9.23506L31.241 4.16641Z" fill="#E9A426"/>
<path d="M52.9949 4.16641C53.0325 4.09559 53.134 4.09559 53.1716 4.16641L55.8619 9.23506C55.8767 9.26292 55.9038 9.28217 55.9349 9.287L61.7573 10.1881C61.8389 10.2007 61.8709 10.3013 61.8115 10.3587L57.6547 14.3849C57.6312 14.4076 57.6203 14.4404 57.6256 14.4727L58.536 20.0904C58.549 20.1705 58.4662 20.2319 58.3933 20.1963L53.1272 17.6205C53.0995 17.6069 53.067 17.6069 53.0393 17.6205L47.7732 20.1963C47.7003 20.2319 47.6175 20.1705 47.6305 20.0904L48.5409 14.4727C48.5462 14.4404 48.5353 14.4076 48.5118 14.3849L44.355 10.3587C44.2956 10.3013 44.3276 10.2007 44.4092 10.1881L50.2316 9.287C50.2627 9.28217 50.2898 9.26292 50.3046 9.23506L52.9949 4.16641Z" fill="#E9A426"/>
<path d="M72.911 0.173835C72.9481 0.10127 73.0519 0.10127 73.089 0.173834L76.2808 6.40739C76.2954 6.43575 76.3225 6.4555 76.354 6.46055L83.2688 7.56988C83.3493 7.58279 83.3813 7.68142 83.3238 7.73918L78.3817 12.7011C78.3592 12.7236 78.3488 12.7556 78.3537 12.7871L79.4355 19.7062C79.4481 19.7868 79.3642 19.8477 79.2914 19.8109L73.0452 16.6439C73.0168 16.6295 72.9832 16.6295 72.9548 16.6439L66.7086 19.8109C66.6358 19.8477 66.5519 19.7868 66.5645 19.7062L67.6463 12.7871C67.6512 12.7556 67.6408 12.7236 67.6183 12.7011L62.6762 7.73918C62.6187 7.68142 62.6507 7.58279 62.7312 7.56988L69.646 6.46055C69.6775 6.4555 69.7046 6.43575 69.7192 6.40739L72.911 0.173835Z" fill="#E9A426"/>
<path d="M96.0535 4.16641C96.0911 4.09559 96.1926 4.09559 96.2302 4.16641L98.9205 9.23506C98.9353 9.26292 98.9624 9.28217 98.9935 9.287L104.816 10.1881C104.897 10.2007 104.929 10.3013 104.87 10.3587L100.713 14.3849C100.69 14.4076 100.679 14.4404 100.684 14.4727L101.595 20.0904C101.608 20.1705 101.525 20.2319 101.452 20.1963L96.1858 17.6205C96.1581 17.6069 96.1256 17.6069 96.0979 17.6205L90.8318 20.1963C90.7589 20.2319 90.6761 20.1705 90.6891 20.0904L91.5995 14.4727C91.6048 14.4404 91.5939 14.4076 91.5704 14.3849L87.4136 10.3587C87.3542 10.3013 87.3862 10.2007 87.4678 10.1881L93.2902 9.287C93.3213 9.28217 93.3484 9.26292 93.3632 9.23506L96.0535 4.16641Z" fill="#E9A426"/>
<path d="M114.241 4.16641C114.279 4.09559 114.38 4.09559 114.418 4.16641L117.108 9.23506C117.123 9.26292 117.15 9.28217 117.181 9.287L123.003 10.1881C123.085 10.2007 123.117 10.3013 123.058 10.3587L118.901 14.3849C118.877 14.4076 118.866 14.4404 118.872 14.4727L119.782 20.0904C119.795 20.1705 119.712 20.2319 119.639 20.1963L114.373 17.6205C114.346 17.6069 114.313 17.6069 114.285 17.6205L109.019 20.1963C108.946 20.2319 108.864 20.1705 108.877 20.0904L109.787 14.4727C109.792 14.4404 109.781 14.4076 109.758 14.3849L105.601 10.3587C105.542 10.3013 105.574 10.2007 105.655 10.1881L111.478 9.287C111.509 9.28217 111.536 9.26292 111.551 9.23506L114.241 4.16641Z" fill="#E9A426"/>
<rect y="22" width="147" height="32" rx="16" fill="#C3D125"/>
<g filter="url(#filter0_d_950_10851)">
<path d="M27.8926 35.0977C27.821 34.668 27.6875 34.3294 27.4922 34.082C27.2969 33.8281 27.0983 33.6458 26.8965 33.5352C26.7337 33.444 26.571 33.3757 26.4082 33.3301C26.252 33.2845 26.1152 33.2422 25.998 33.2031C25.8743 33.1576 25.7832 33.1087 25.7246 33.0566C25.666 33.0046 25.6367 32.9329 25.6367 32.8418C25.6367 32.653 25.7637 32.5586 26.0176 32.5586C26.1348 32.5586 26.2487 32.5716 26.3594 32.5977C26.4701 32.6237 26.6035 32.653 26.7598 32.6855C26.916 32.7181 27.1016 32.7572 27.3164 32.8027C27.5312 32.8418 27.7982 32.8743 28.1172 32.9004C28.4102 32.9264 28.6576 32.9427 28.8594 32.9492C29.0612 32.9492 29.2305 32.9525 29.3672 32.959C29.5104 32.959 29.6309 32.9655 29.7285 32.9785C29.8262 32.985 29.9141 33.0046 29.9922 33.0371C30.1094 33.0892 30.2624 33.2161 30.4512 33.418C30.6465 33.6198 30.8613 33.8672 31.0957 34.1602C31.3366 34.4531 31.5905 34.7786 31.8574 35.1367C32.1243 35.4948 32.388 35.8594 32.6484 36.2305C32.9154 36.5951 33.1725 36.9499 33.4199 37.2949C33.6738 37.64 33.9017 37.946 34.1035 38.2129C34.3118 38.4798 34.4876 38.6947 34.6309 38.8574C34.7806 39.0202 34.8815 39.1016 34.9336 39.1016C35.0443 39.1016 35.2591 38.8021 35.5781 38.2031C35.9036 37.5977 36.3626 36.696 36.9551 35.498C37.1178 35.166 37.2839 34.8145 37.4531 34.4434C37.6289 34.0658 37.7982 33.6947 37.9609 33.3301C38.1302 32.959 38.2897 32.6042 38.4395 32.2656C38.5892 31.9271 38.7259 31.6276 38.8496 31.3672C38.9798 31.1068 39.0938 30.8984 39.1914 30.7422C39.2891 30.5794 39.3639 30.4915 39.416 30.4785C39.4486 30.4655 39.4811 30.459 39.5137 30.459C39.5527 30.459 39.5951 30.459 39.6406 30.459C39.7578 30.459 39.9206 30.4622 40.1289 30.4688C40.3372 30.4753 40.6074 30.4785 40.9395 30.4785C41.1413 30.4785 41.3236 30.472 41.4863 30.459C41.6491 30.4395 41.7923 30.4199 41.916 30.4004C42.0462 30.3809 42.1634 30.3646 42.2676 30.3516C42.3717 30.332 42.4694 30.3223 42.5605 30.3223C42.6973 30.3223 42.7852 30.3418 42.8242 30.3809C42.8698 30.4199 42.8926 30.4655 42.8926 30.5176C42.8926 30.6348 42.7949 30.7227 42.5996 30.7812C42.4108 30.8398 42.1439 30.9017 41.7988 30.9668C41.4603 31.0254 41.0794 31.1296 40.6562 31.2793C40.3958 31.3704 40.2135 31.5365 40.1094 31.7773C40.0052 32.0117 39.9531 32.3047 39.9531 32.6562C39.9531 32.9102 39.9727 33.2357 40.0117 33.6328C40.0573 34.0234 40.1159 34.4596 40.1875 34.9414C40.2656 35.4167 40.3568 35.9245 40.4609 36.4648C40.5651 36.9987 40.6758 37.5391 40.793 38.0859C40.9167 38.6263 41.0436 39.1536 41.1738 39.668C41.3105 40.1823 41.4473 40.6576 41.584 41.0938C41.7207 41.5299 41.8542 41.9141 41.9844 42.2461C42.1211 42.5716 42.2513 42.8158 42.375 42.9785C42.4922 43.1348 42.6094 43.2682 42.7266 43.3789C42.8503 43.4896 42.9837 43.584 43.127 43.6621C43.2767 43.7402 43.4362 43.8086 43.6055 43.8672C43.7812 43.9258 43.9766 43.9844 44.1914 44.043C44.3997 44.0951 44.543 44.1504 44.6211 44.209C44.6992 44.2676 44.7383 44.3392 44.7383 44.4238C44.7383 44.515 44.6829 44.5898 44.5723 44.6484C44.4681 44.707 44.3021 44.7363 44.0742 44.7363C43.8008 44.7363 43.5143 44.7266 43.2148 44.707C42.9219 44.6875 42.5964 44.6777 42.2383 44.6777C41.6589 44.6777 41.1283 44.7201 40.6465 44.8047C40.1712 44.8893 39.735 44.9837 39.3379 45.0879C38.9473 45.1921 38.5924 45.2865 38.2734 45.3711C37.9544 45.4557 37.6615 45.498 37.3945 45.498C37.3229 45.498 37.2513 45.485 37.1797 45.459C37.1081 45.4329 37.0723 45.3743 37.0723 45.2832C37.0723 45.1855 37.1309 45.1042 37.248 45.0391C37.3652 44.9805 37.515 44.9251 37.6973 44.873C37.8861 44.8145 38.0944 44.7559 38.3223 44.6973C38.5501 44.6387 38.7747 44.5605 38.9961 44.4629C39.224 44.3587 39.3867 44.2253 39.4844 44.0625C39.5885 43.8932 39.6406 43.6784 39.6406 43.418C39.6406 43.2682 39.6146 43.0339 39.5625 42.7148C39.5169 42.3958 39.4551 42.0247 39.377 41.6016C39.2988 41.1784 39.2077 40.7227 39.1035 40.2344C39.0059 39.7461 38.9017 39.2578 38.791 38.7695C38.6868 38.2812 38.5794 37.8125 38.4688 37.3633C38.3646 36.9076 38.2702 36.5072 38.1855 36.1621C38.1009 35.8171 38.026 35.5404 37.9609 35.332C37.9023 35.1237 37.8665 35.0195 37.8535 35.0195C37.834 35.0195 37.7721 35.1074 37.668 35.2832C37.5703 35.459 37.4466 35.6934 37.2969 35.9863C37.1471 36.2793 36.9779 36.6146 36.7891 36.9922C36.6003 37.3698 36.4082 37.7572 36.2129 38.1543C36.0241 38.5514 35.8353 38.9453 35.6465 39.3359C35.4577 39.7266 35.2852 40.0846 35.1289 40.4102C34.9727 40.7292 34.8424 40.9993 34.7383 41.2207C34.6341 41.4355 34.5658 41.569 34.5332 41.6211C34.4681 41.7448 34.3997 41.875 34.3281 42.0117C34.2565 42.1484 34.1816 42.2754 34.1035 42.3926C34.0319 42.5033 33.9635 42.5977 33.8984 42.6758C33.8333 42.7474 33.778 42.7832 33.7324 42.7832C33.6934 42.7832 33.6413 42.7539 33.5762 42.6953C33.5176 42.6302 33.4557 42.5521 33.3906 42.4609C33.3255 42.3698 33.2572 42.2721 33.1855 42.168C33.1204 42.0638 33.0651 41.9694 33.0195 41.8848C32.8503 41.5918 32.6517 41.2467 32.4238 40.8496C32.196 40.446 31.9551 40.026 31.7012 39.5898C31.4538 39.1471 31.2064 38.7044 30.959 38.2617C30.7181 37.819 30.4902 37.4121 30.2754 37.041C30.0671 36.6634 29.888 36.3411 29.7383 36.0742C29.5885 35.8008 29.4876 35.6152 29.4355 35.5176C29.3249 35.3223 29.2305 35.1595 29.1523 35.0293C29.0742 34.8926 29.0059 34.7852 28.9473 34.707C28.8952 34.6289 28.8496 34.5736 28.8105 34.541C28.7715 34.502 28.7324 34.4824 28.6934 34.4824C28.6413 34.4824 28.6152 34.5345 28.6152 34.6387C28.6152 34.7428 28.625 34.8861 28.6445 35.0684C28.6641 35.2441 28.6803 35.4004 28.6934 35.5371C28.7585 36.1686 28.8008 36.7611 28.8203 37.3145C28.8464 37.8613 28.8594 38.3887 28.8594 38.8965C28.8594 39.3522 28.8333 39.847 28.7812 40.3809C28.7292 40.9082 28.6413 41.4388 28.5176 41.9727C28.3939 42.5 28.2246 43.0078 28.0098 43.4961C27.8014 43.9844 27.5345 44.4173 27.209 44.7949C26.8835 45.1725 26.4961 45.472 26.0469 45.6934C25.6042 45.9212 25.0866 46.0352 24.4941 46.0352C24.1491 46.0352 23.8431 45.9798 23.5762 45.8691C23.3092 45.7585 23.0814 45.6087 22.8926 45.4199C22.7103 45.2376 22.5703 45.0293 22.4727 44.7949C22.3815 44.554 22.3359 44.3034 22.3359 44.043C22.3359 43.8607 22.3587 43.6784 22.4043 43.4961C22.4564 43.3138 22.5378 43.1543 22.6484 43.0176C22.7591 42.8743 22.8991 42.7604 23.0684 42.6758C23.2376 42.5846 23.446 42.5391 23.6934 42.5391C23.8887 42.5391 24.0612 42.5749 24.2109 42.6465C24.3672 42.7116 24.5039 42.7962 24.6211 42.9004C24.7448 42.998 24.8555 43.1087 24.9531 43.2324C25.0508 43.3561 25.1387 43.4733 25.2168 43.584C25.4902 43.9551 25.7897 44.1406 26.1152 44.1406C26.4017 44.1406 26.6491 44.0527 26.8574 43.877C27.0658 43.7012 27.2448 43.4668 27.3945 43.1738C27.5508 42.8743 27.6777 42.5326 27.7754 42.1484C27.873 41.7643 27.9479 41.3639 28 40.9473C28.0586 40.5306 28.0977 40.1139 28.1172 39.6973C28.1432 39.2741 28.1562 38.8802 28.1562 38.5156C28.1562 37.8711 28.1302 37.2559 28.0781 36.6699C28.026 36.084 27.9642 35.5599 27.8926 35.0977ZM47.5605 37.959C47.3197 37.959 47.0918 37.9134 46.877 37.8223C46.6686 37.7311 46.4863 37.5944 46.3301 37.4121C46.1738 37.2298 46.0501 37.002 45.959 36.7285C45.8678 36.4551 45.8223 36.1328 45.8223 35.7617C45.8223 35.3581 45.8776 34.9642 45.9883 34.5801C46.1055 34.1895 46.2845 33.8444 46.5254 33.5449C46.7663 33.2389 47.0723 32.9948 47.4434 32.8125C47.821 32.6302 48.2734 32.5391 48.8008 32.5391C49.237 32.5391 49.6211 32.5977 49.9531 32.7148C50.2917 32.8255 50.5879 32.9785 50.8418 33.1738C51.0957 33.3626 51.3105 33.584 51.4863 33.8379C51.6686 34.0918 51.8216 34.3587 51.9453 34.6387C52.069 34.9121 52.1699 35.1921 52.248 35.4785C52.3327 35.7585 52.4043 36.0254 52.4629 36.2793C52.4954 36.4225 52.5345 36.6276 52.5801 36.8945C52.6322 37.1549 52.6875 37.4577 52.7461 37.8027C52.8047 38.1478 52.8665 38.5189 52.9316 38.916C52.9967 39.3066 53.0618 39.7038 53.127 40.1074C53.1921 40.5111 53.2539 40.9049 53.3125 41.2891C53.3776 41.6667 53.4362 42.015 53.4883 42.334C53.5404 42.6465 53.5827 42.9167 53.6152 43.1445C53.6543 43.3659 53.6836 43.5189 53.7031 43.6035C53.7422 43.8053 53.7845 44.0104 53.8301 44.2188C53.8822 44.4271 53.944 44.6191 54.0156 44.7949C54.0938 44.9642 54.1882 45.1042 54.2988 45.2148C54.4095 45.3255 54.5495 45.3809 54.7188 45.3809C54.8164 45.3809 54.901 45.3581 54.9727 45.3125C55.0443 45.2669 55.0996 45.2051 55.1387 45.127C55.1842 45.0488 55.2168 44.9609 55.2363 44.8633C55.2559 44.7656 55.2656 44.6647 55.2656 44.5605C55.2656 44.4368 55.2624 44.3132 55.2559 44.1895C55.2493 44.0592 55.2461 43.9486 55.2461 43.8574C55.2461 43.7598 55.2591 43.6751 55.2852 43.6035C55.3112 43.5319 55.3633 43.4961 55.4414 43.4961C55.513 43.4961 55.5684 43.5384 55.6074 43.623C55.653 43.7012 55.6855 43.7956 55.7051 43.9062C55.7311 44.0104 55.7474 44.1178 55.7539 44.2285C55.7604 44.3327 55.7637 44.4108 55.7637 44.4629C55.7637 44.6908 55.7441 44.9479 55.7051 45.2344C55.666 45.5208 55.5846 45.7975 55.4609 46.0645C55.3438 46.3379 55.1484 46.5625 54.875 46.7383C54.6016 46.9141 54.2858 47.002 53.9277 47.002C53.6152 47.002 53.3451 46.9564 53.1172 46.8652C52.8958 46.7741 52.7038 46.6602 52.541 46.5234C52.3848 46.3867 52.2513 46.2402 52.1406 46.084C52.0365 45.9277 51.9518 45.7812 51.8867 45.6445C51.7044 45.293 51.5645 44.9089 51.4668 44.4922C51.3757 44.069 51.3008 43.6654 51.2422 43.2812C51.1445 43.444 50.9948 43.6458 50.793 43.8867C50.5977 44.1276 50.3535 44.3587 50.0605 44.5801C49.7676 44.8014 49.429 44.9902 49.0449 45.1465C48.6608 45.3027 48.2344 45.3809 47.7656 45.3809C47.2448 45.3809 46.7988 45.306 46.4277 45.1562C46.0632 45.013 45.7637 44.8177 45.5293 44.5703C45.2949 44.3164 45.1224 44.0234 45.0117 43.6914C44.901 43.3529 44.8457 42.9948 44.8457 42.6172C44.8457 42.2135 44.9206 41.8066 45.0703 41.3965C45.2201 40.9863 45.4642 40.6152 45.8027 40.2832C46.1478 39.9512 46.5938 39.681 47.1406 39.4727C47.694 39.2643 48.3678 39.1602 49.1621 39.1602C49.3444 39.1602 49.5202 39.1699 49.6895 39.1895C49.8652 39.2025 50.0215 39.2188 50.1582 39.2383C50.3014 39.2578 50.4219 39.2773 50.5195 39.2969C50.6237 39.3164 50.6986 39.3294 50.7441 39.3359C50.7051 38.776 50.6562 38.2161 50.5977 37.6562C50.5716 37.4219 50.5423 37.1745 50.5098 36.9141C50.4837 36.6536 50.4544 36.3932 50.4219 36.1328C50.3893 35.8659 50.3535 35.6055 50.3145 35.3516C50.2754 35.0977 50.2331 34.86 50.1875 34.6387C50.0833 34.1374 49.8783 33.7402 49.5723 33.4473C49.2728 33.1478 48.8887 32.998 48.4199 32.998C48.166 32.998 47.9414 33.0436 47.7461 33.1348C47.5573 33.2259 47.3945 33.3431 47.2578 33.4863C47.1276 33.6296 47.0299 33.7923 46.9648 33.9746C46.8997 34.1504 46.8672 34.3262 46.8672 34.502C46.8672 34.6908 46.9128 34.8503 47.0039 34.9805C47.0951 35.1042 47.2057 35.2148 47.3359 35.3125C47.4727 35.4102 47.6191 35.5046 47.7754 35.5957C47.9316 35.6803 48.0749 35.7812 48.2051 35.8984C48.3418 36.0091 48.4557 36.1458 48.5469 36.3086C48.638 36.4648 48.6836 36.6634 48.6836 36.9043C48.6836 37.2233 48.5729 37.4805 48.3516 37.6758C48.1367 37.8646 47.873 37.959 47.5605 37.959ZM50.8223 39.9414C50.7767 39.9219 50.6953 39.8991 50.5781 39.873C50.4674 39.8405 50.334 39.8112 50.1777 39.7852C50.0215 39.7526 49.8522 39.7266 49.6699 39.707C49.4941 39.6875 49.3184 39.6777 49.1426 39.6777C48.7975 39.6777 48.4753 39.7266 48.1758 39.8242C47.8828 39.9219 47.6289 40.0684 47.4141 40.2637C47.1992 40.4525 47.0299 40.6934 46.9062 40.9863C46.7826 41.2728 46.7207 41.6048 46.7207 41.9824C46.7207 42.3275 46.776 42.6139 46.8867 42.8418C47.0039 43.0632 47.1504 43.2389 47.3262 43.3691C47.5085 43.4993 47.707 43.5905 47.9219 43.6426C48.1432 43.6947 48.3581 43.7207 48.5664 43.7207C48.8984 43.7207 49.2142 43.6686 49.5137 43.5645C49.8132 43.4603 50.0768 43.3398 50.3047 43.2031C50.5326 43.0664 50.7181 42.9329 50.8613 42.8027C51.0046 42.6725 51.0924 42.5846 51.125 42.5391C51.0794 42.1029 51.0371 41.7057 50.998 41.3477C50.9785 41.1914 50.959 41.0384 50.9395 40.8887C50.9264 40.7389 50.9102 40.599 50.8906 40.4688C50.8776 40.3385 50.8646 40.2279 50.8516 40.1367C50.8385 40.0456 50.8288 39.9805 50.8223 39.9414ZM59.1621 32.5391C59.1621 32.6172 59.1589 32.7279 59.1523 32.8711C59.1458 33.0078 59.1426 33.151 59.1426 33.3008C59.1426 33.4896 59.1523 33.6914 59.1719 33.9062C59.1979 34.1146 59.2272 34.3099 59.2598 34.4922C59.2988 34.668 59.3346 34.8177 59.3672 34.9414C59.4062 35.0586 59.4388 35.1172 59.4648 35.1172C59.4909 35.1172 59.5267 35.0228 59.5723 34.834C59.6243 34.6452 59.696 34.4076 59.7871 34.1211C59.8848 33.8346 60.0085 33.5286 60.1582 33.2031C60.3079 32.8711 60.5 32.5618 60.7344 32.2754C60.9688 31.9889 61.2487 31.7513 61.5742 31.5625C61.9062 31.3737 62.2969 31.2793 62.7461 31.2793C63.1628 31.2793 63.5111 31.3509 63.791 31.4941C64.0775 31.6374 64.3053 31.8164 64.4746 32.0312C64.6439 32.2461 64.7643 32.4805 64.8359 32.7344C64.9076 32.9818 64.9434 33.2161 64.9434 33.4375C64.9434 33.7826 64.8978 34.0853 64.8066 34.3457C64.7155 34.5996 64.5918 34.8112 64.4355 34.9805C64.2858 35.1497 64.1133 35.2799 63.918 35.3711C63.7227 35.4557 63.5241 35.498 63.3223 35.498C62.9512 35.498 62.6484 35.4102 62.4141 35.2344C62.1797 35.0586 62.0625 34.8014 62.0625 34.4629C62.0625 34.2806 62.0853 34.1243 62.1309 33.9941C62.1829 33.8639 62.248 33.7533 62.3262 33.6621C62.4108 33.571 62.5085 33.4961 62.6191 33.4375C62.7363 33.3724 62.8633 33.3203 63 33.2812C63.2799 33.1966 63.4688 33.0924 63.5664 32.9688C63.6706 32.8451 63.7227 32.7018 63.7227 32.5391C63.7227 32.4414 63.7031 32.347 63.6641 32.2559C63.6315 32.1647 63.5729 32.0833 63.4883 32.0117C63.4102 31.9336 63.306 31.8717 63.1758 31.8262C63.0521 31.7806 62.8991 31.7578 62.7168 31.7578C62.3457 31.7578 62.0202 31.8457 61.7402 32.0215C61.4603 32.1908 61.2161 32.4219 61.0078 32.7148C60.7995 33.0013 60.627 33.3333 60.4902 33.7109C60.3535 34.0885 60.2428 34.4857 60.1582 34.9023C60.0736 35.3125 60.0117 35.7292 59.9727 36.1523C59.9401 36.569 59.9238 36.9596 59.9238 37.3242C59.9238 37.6562 59.9368 38.0176 59.9629 38.4082C59.9889 38.7923 60.0215 39.1797 60.0605 39.5703C60.1061 39.9609 60.1549 40.3418 60.207 40.7129C60.2591 41.084 60.3079 41.4225 60.3535 41.7285C60.4056 42.0345 60.4512 42.2982 60.4902 42.5195C60.5293 42.7409 60.5586 42.8939 60.5781 42.9785C60.6497 43.2715 60.7604 43.4766 60.9102 43.5938C61.0664 43.7044 61.2715 43.7598 61.5254 43.7598C61.6361 43.7598 61.75 43.7565 61.8672 43.75C61.9909 43.7435 62.082 43.7402 62.1406 43.7402C62.3164 43.7402 62.4043 43.8053 62.4043 43.9355C62.4043 44.0397 62.3555 44.1081 62.2578 44.1406C62.1797 44.1732 62.0397 44.1927 61.8379 44.1992C61.6426 44.2057 61.4115 44.2122 61.1445 44.2188C60.8841 44.2253 60.6009 44.235 60.2949 44.248C59.9889 44.2611 59.6927 44.2839 59.4062 44.3164C59.0872 44.3555 58.778 44.4108 58.4785 44.4824C58.179 44.5475 57.9023 44.6126 57.6484 44.6777C57.3945 44.7363 57.1699 44.7884 56.9746 44.834C56.7793 44.8796 56.623 44.9023 56.5059 44.9023C56.3822 44.9023 56.2975 44.8763 56.252 44.8242C56.2064 44.7721 56.1836 44.7168 56.1836 44.6582C56.1836 44.5605 56.2227 44.4922 56.3008 44.4531C56.3854 44.4076 56.4993 44.362 56.6426 44.3164C56.7533 44.2839 56.8835 44.2513 57.0332 44.2188C57.1895 44.1797 57.3717 44.1146 57.5801 44.0234C57.7884 43.9323 57.9316 43.8118 58.0098 43.6621C58.0944 43.5059 58.1367 43.2715 58.1367 42.959C58.1367 42.8613 58.1302 42.6986 58.1172 42.4707C58.1042 42.2363 58.0846 41.9596 58.0586 41.6406C58.0391 41.3216 58.013 40.9733 57.9805 40.5957C57.9544 40.2116 57.9251 39.821 57.8926 39.4238C57.86 39.0202 57.8242 38.6198 57.7852 38.2227C57.7526 37.8255 57.7201 37.4544 57.6875 37.1094C57.6549 36.7578 57.6224 36.4453 57.5898 36.1719C57.5638 35.8984 57.541 35.6803 57.5215 35.5176C57.4954 35.3223 57.4564 35.1693 57.4043 35.0586C57.3522 34.9414 57.2904 34.8535 57.2188 34.7949C57.1471 34.7363 57.0625 34.7005 56.9648 34.6875C56.8737 34.668 56.7728 34.6582 56.6621 34.6582H56.2617C56.2292 34.6582 56.1868 34.6582 56.1348 34.6582C56.0892 34.6517 56.0436 34.6419 55.998 34.6289C55.9525 34.6094 55.9134 34.5833 55.8809 34.5508C55.8548 34.5182 55.8418 34.4759 55.8418 34.4238C55.8418 34.3522 55.8711 34.3001 55.9297 34.2676C55.9883 34.235 56.0599 34.2122 56.1445 34.1992C56.4701 34.1602 56.763 34.1048 57.0234 34.0332C57.2904 33.9616 57.5508 33.8314 57.8047 33.6426C57.9609 33.5189 58.1237 33.3561 58.293 33.1543C58.4688 32.946 58.612 32.7279 58.7227 32.5C58.8008 32.3372 58.8854 32.2559 58.9766 32.2559C59.0612 32.2559 59.1133 32.2884 59.1328 32.3535C59.1523 32.4186 59.1621 32.4805 59.1621 32.5391ZM71.8574 25.1758C71.9095 25.1758 71.9421 25.2246 71.9551 25.3223C71.9746 25.4134 71.9844 25.5404 71.9844 25.7031C71.9844 26.2109 71.9779 26.7611 71.9648 27.3535C71.9583 27.9395 71.9486 28.5547 71.9355 29.1992C71.9225 29.8372 71.9062 30.4948 71.8867 31.1719C71.8737 31.8424 71.8574 32.513 71.8379 33.1836C71.8184 34.1276 71.7988 35.0488 71.7793 35.9473C71.7598 36.8457 71.7435 37.6725 71.7305 38.4277C71.7174 39.1764 71.7044 39.8307 71.6914 40.3906C71.6849 40.9505 71.6816 41.3672 71.6816 41.6406C71.6816 41.9531 71.7077 42.2103 71.7598 42.4121C71.8118 42.6139 71.8802 42.7799 71.9648 42.9102C72.0495 43.0339 72.1471 43.1283 72.2578 43.1934C72.375 43.2585 72.4954 43.3138 72.6191 43.3594C72.7819 43.418 72.9382 43.4603 73.0879 43.4863C73.2441 43.5059 73.3809 43.5221 73.498 43.5352C73.6152 43.5482 73.7064 43.5677 73.7715 43.5938C73.8431 43.6198 73.8789 43.6686 73.8789 43.7402C73.8789 43.8379 73.8073 43.8997 73.6641 43.9258C73.5273 43.9518 73.3809 43.9648 73.2246 43.9648C73.0033 43.9648 72.6973 43.9486 72.3066 43.916C71.916 43.877 71.4668 43.8574 70.959 43.8574C70.7116 43.8574 70.4642 43.8704 70.2168 43.8965C69.9694 43.9225 69.7057 43.9518 69.4258 43.9844C69.1523 44.0104 68.8496 44.0365 68.5176 44.0625C68.1921 44.0885 67.821 44.1016 67.4043 44.1016C66.8184 44.1016 66.2682 44.0299 65.7539 43.8867C65.2396 43.7435 64.7904 43.5189 64.4062 43.2129C64.0221 42.9004 63.7194 42.5 63.498 42.0117C63.2767 41.5169 63.166 40.9212 63.166 40.2246C63.166 39.6061 63.2767 39.056 63.498 38.5742C63.7259 38.0859 64.0319 37.6758 64.416 37.3438C64.8066 37.0117 65.2591 36.7578 65.7734 36.582C66.2943 36.4062 66.8444 36.3184 67.4238 36.3184C68.0293 36.3184 68.5339 36.3672 68.9375 36.4648C69.3477 36.5625 69.6764 36.6602 69.9238 36.7578C69.9238 36.1328 69.9173 35.498 69.9043 34.8535C69.8913 34.2025 69.875 33.571 69.8555 32.959C69.8424 32.3405 69.8262 31.7578 69.8066 31.2109C69.7936 30.6641 69.7773 30.1823 69.7578 29.7656C69.7448 29.349 69.7318 29.0104 69.7188 28.75C69.7057 28.4896 69.6992 28.3398 69.6992 28.3008C69.6927 28.2031 69.6829 28.1087 69.6699 28.0176C69.6634 27.9199 69.6471 27.8353 69.6211 27.7637C69.6016 27.6855 69.569 27.627 69.5234 27.5879C69.4779 27.5423 69.416 27.5195 69.3379 27.5195C69.2402 27.5195 69.1296 27.5423 69.0059 27.5879C68.8822 27.627 68.7552 27.6725 68.625 27.7246C68.5013 27.7702 68.3776 27.8158 68.2539 27.8613C68.1302 27.9004 68.0195 27.9199 67.9219 27.9199C67.8633 27.9199 67.8079 27.9102 67.7559 27.8906C67.7038 27.8646 67.6777 27.8158 67.6777 27.7441C67.6777 27.6595 67.707 27.5911 67.7656 27.5391C67.8307 27.487 67.9219 27.4349 68.0391 27.3828C68.1237 27.3438 68.2214 27.3079 68.332 27.2754C68.4427 27.2363 68.5762 27.1842 68.7324 27.1191C68.8952 27.0475 69.0872 26.9596 69.3086 26.8555C69.5299 26.7448 69.7936 26.5983 70.0996 26.416C70.3991 26.2402 70.6497 26.0775 70.8516 25.9277C71.0599 25.778 71.2292 25.6478 71.3594 25.5371C71.4961 25.4264 71.6003 25.3385 71.6719 25.2734C71.75 25.2083 71.8118 25.1758 71.8574 25.1758ZM70.002 41.3379C70.002 41.0514 69.9987 40.7422 69.9922 40.4102C69.9922 40.0716 69.9889 39.7298 69.9824 39.3848C69.9824 39.0332 69.9759 38.6849 69.9629 38.3398C69.9564 37.9948 69.9499 37.6693 69.9434 37.3633C69.7415 37.2591 69.4941 37.1745 69.2012 37.1094C68.9082 37.0378 68.5827 37.002 68.2246 37.002C67.7884 37.002 67.4043 37.0768 67.0723 37.2266C66.7402 37.3763 66.4603 37.5879 66.2324 37.8613C66.0046 38.1348 65.832 38.4635 65.7148 38.8477C65.5977 39.2318 65.5391 39.6615 65.5391 40.1367C65.5391 40.6445 65.5944 41.1068 65.7051 41.5234C65.8158 41.9336 65.9785 42.2852 66.1934 42.5781C66.4147 42.8711 66.6914 43.099 67.0234 43.2617C67.3555 43.418 67.7428 43.4961 68.1855 43.4961C68.5632 43.4961 68.8724 43.4375 69.1133 43.3203C69.3607 43.1966 69.5495 43.0436 69.6797 42.8613C69.8099 42.679 69.8945 42.4609 69.9336 42.207C69.9792 41.9531 70.002 41.6634 70.002 41.3379ZM76.5059 29.3359C76.89 29.3359 77.196 29.4368 77.4238 29.6387C77.6517 29.8405 77.7656 30.127 77.7656 30.498C77.7656 30.7454 77.7266 30.9538 77.6484 31.123C77.5703 31.2858 77.4694 31.4193 77.3457 31.5234C77.222 31.6211 77.0853 31.6927 76.9355 31.7383C76.7923 31.7773 76.6491 31.7969 76.5059 31.7969C76.3822 31.7969 76.252 31.7773 76.1152 31.7383C75.9785 31.6992 75.8516 31.6341 75.7344 31.543C75.6172 31.4453 75.5195 31.3216 75.4414 31.1719C75.3698 31.0156 75.334 30.8236 75.334 30.5957C75.334 30.3548 75.373 30.1562 75.4512 30C75.5293 29.8372 75.627 29.707 75.7441 29.6094C75.8613 29.5117 75.9883 29.4434 76.125 29.4043C76.2617 29.3587 76.3887 29.3359 76.5059 29.3359ZM77.8926 32.5391C77.9577 32.5391 77.9902 32.6139 77.9902 32.7637C77.9902 32.8613 77.9772 33.0241 77.9512 33.252C77.9316 33.4733 77.9056 33.7109 77.873 33.9648C77.821 34.3685 77.7689 34.8177 77.7168 35.3125C77.6647 35.8008 77.6126 36.3053 77.5605 36.8262C77.515 37.3405 77.4694 37.8516 77.4238 38.3594C77.3848 38.8672 77.349 39.3392 77.3164 39.7754C77.2839 40.2051 77.2578 40.5859 77.2383 40.918C77.2188 41.2435 77.209 41.4844 77.209 41.6406C77.209 41.8424 77.222 42.0085 77.248 42.1387C77.2741 42.2689 77.3066 42.3763 77.3457 42.4609C77.3848 42.5456 77.4271 42.6139 77.4727 42.666C77.5247 42.7181 77.5768 42.7637 77.6289 42.8027C77.6875 42.8418 77.7591 42.8776 77.8438 42.9102C77.9284 42.9427 78.0195 42.9753 78.1172 43.0078C78.2148 43.0339 78.3125 43.0566 78.4102 43.0762C78.5143 43.0957 78.6087 43.1087 78.6934 43.1152C78.8301 43.1413 78.9408 43.1608 79.0254 43.1738C79.11 43.1868 79.1523 43.2292 79.1523 43.3008C79.1523 43.431 79.0124 43.4961 78.7324 43.4961C78.5371 43.4961 78.3418 43.4831 78.1465 43.457C77.9512 43.4245 77.7493 43.3887 77.541 43.3496C77.3392 43.3105 77.1276 43.278 76.9062 43.252C76.6849 43.2194 76.4473 43.2031 76.1934 43.2031C75.959 43.2031 75.7474 43.2096 75.5586 43.2227C75.3698 43.2357 75.1973 43.252 75.041 43.2715C74.8848 43.291 74.7383 43.3073 74.6016 43.3203C74.4648 43.3333 74.3281 43.3398 74.1914 43.3398C74.0807 43.3398 73.9798 43.3268 73.8887 43.3008C73.7975 43.2682 73.752 43.2064 73.752 43.1152C73.752 43.0241 73.8008 42.9622 73.8984 42.9297C74.0026 42.8906 74.1068 42.8613 74.2109 42.8418C74.3411 42.8158 74.4681 42.7865 74.5918 42.7539C74.7155 42.7214 74.8262 42.6725 74.9238 42.6074C75.028 42.5358 75.1126 42.4447 75.1777 42.334C75.2493 42.2168 75.2949 42.0671 75.3145 41.8848C75.3405 41.5267 75.36 41.1621 75.373 40.791C75.3861 40.4199 75.3958 40.0553 75.4023 39.6973C75.4089 39.3327 75.4121 38.9811 75.4121 38.6426C75.4121 38.2975 75.4121 37.9753 75.4121 37.6758C75.4121 37.3177 75.4121 36.9922 75.4121 36.6992C75.4121 36.3997 75.4056 36.1458 75.3926 35.9375C75.3796 35.6055 75.3405 35.3451 75.2754 35.1562C75.2168 34.9674 75.1289 34.8275 75.0117 34.7363C74.901 34.6452 74.7578 34.5866 74.582 34.5605C74.4062 34.528 74.1947 34.502 73.9473 34.4824C73.8757 34.4694 73.8171 34.4466 73.7715 34.4141C73.7324 34.3815 73.7129 34.3294 73.7129 34.2578C73.7129 34.1341 73.8105 34.0625 74.0059 34.043C74.1035 34.0365 74.2272 34.0267 74.377 34.0137C74.5267 33.9941 74.6992 33.9681 74.8945 33.9355C75.0964 33.903 75.3145 33.8574 75.5488 33.7988C75.7832 33.7337 76.0306 33.6458 76.291 33.5352C76.5775 33.418 76.8118 33.3008 76.9941 33.1836C77.1829 33.0664 77.3359 32.9622 77.4531 32.8711C77.5703 32.7734 77.6615 32.6953 77.7266 32.6367C77.7917 32.5716 77.847 32.5391 77.8926 32.5391ZM87.1406 31.9629C87.6615 31.9629 88.1172 31.9954 88.5078 32.0605C88.8984 32.1257 89.2533 32.2005 89.5723 32.2852C89.8978 32.3633 90.2005 32.4349 90.4805 32.5C90.7604 32.5651 91.0501 32.5977 91.3496 32.5977C91.9681 32.5977 92.554 32.3112 93.1074 31.7383C93.2637 31.5755 93.3971 31.4128 93.5078 31.25C93.625 31.0872 93.7292 30.944 93.8203 30.8203C93.9115 30.6901 93.9961 30.5859 94.0742 30.5078C94.1589 30.4232 94.2435 30.3809 94.3281 30.3809C94.4714 30.3809 94.543 30.459 94.543 30.6152C94.543 30.7129 94.4746 30.8691 94.3379 31.084C94.2012 31.2988 94.0384 31.543 93.8496 31.8164C93.6608 32.0898 93.4655 32.373 93.2637 32.666C93.0684 32.959 92.9089 33.2292 92.7852 33.4766C92.6615 33.7305 92.554 33.9583 92.4629 34.1602C92.3783 34.362 92.2969 34.5638 92.2188 34.7656C92.1406 34.9609 92.0625 35.166 91.9844 35.3809C91.9062 35.5892 91.8184 35.8301 91.7207 36.1035C91.6426 36.3314 91.5579 36.5137 91.4668 36.6504C91.3757 36.7871 91.2682 36.8555 91.1445 36.8555C90.9883 36.8555 90.9102 36.7253 90.9102 36.4648C90.9102 36.3607 90.9264 36.2077 90.959 36.0059C90.9915 35.7975 91.0078 35.5697 91.0078 35.3223C91.0078 34.3848 90.6823 33.6719 90.0312 33.1836C89.3802 32.6888 88.4525 32.4414 87.248 32.4414C86.916 32.4414 86.5645 32.487 86.1934 32.5781C85.8288 32.6693 85.4674 32.819 85.1094 33.0273C84.7513 33.2292 84.4095 33.4961 84.084 33.8281C83.7585 34.1536 83.472 34.5573 83.2246 35.0391C82.9837 35.5143 82.7884 36.0742 82.6387 36.7188C82.4954 37.3568 82.4238 38.0892 82.4238 38.916C82.4238 39.4043 82.4564 39.8698 82.5215 40.3125C82.5866 40.7552 82.6777 41.1686 82.7949 41.5527C82.9121 41.9368 83.0488 42.2852 83.2051 42.5977C83.3613 42.9102 83.5339 43.1771 83.7227 43.3984C83.9635 43.6849 84.2207 43.916 84.4941 44.0918C84.7676 44.2676 85.041 44.4043 85.3145 44.502C85.5944 44.5996 85.8646 44.668 86.125 44.707C86.3854 44.7396 86.6263 44.7559 86.8477 44.7559C87.2513 44.7559 87.6126 44.7201 87.9316 44.6484C88.2572 44.5703 88.5436 44.4727 88.791 44.3555C89.0384 44.2318 89.2467 44.0951 89.416 43.9453C89.5918 43.7891 89.735 43.6328 89.8457 43.4766C89.9368 43.3529 90.015 43.2096 90.0801 43.0469C90.1452 42.8841 90.1973 42.7181 90.2363 42.5488C90.2819 42.373 90.3145 42.2005 90.334 42.0312C90.3535 41.8555 90.3633 41.6927 90.3633 41.543C90.3633 41.2891 90.347 41.0449 90.3145 40.8105C90.2884 40.5762 90.2266 40.3711 90.1289 40.1953C90.0378 40.0195 89.9076 39.8796 89.7383 39.7754C89.569 39.6712 89.3444 39.6191 89.0645 39.6191C88.6934 39.6191 88.3548 39.6452 88.0488 39.6973C87.7493 39.7493 87.4336 39.7754 87.1016 39.7754C86.9648 39.7754 86.8574 39.7526 86.7793 39.707C86.7012 39.6615 86.6621 39.5931 86.6621 39.502C86.6621 39.4173 86.6947 39.3424 86.7598 39.2773C86.8249 39.2122 86.9681 39.1797 87.1895 39.1797C87.5475 39.1797 88.0098 39.1569 88.5762 39.1113C89.1491 39.0592 89.8327 38.9616 90.627 38.8184C91.0632 38.7402 91.4375 38.6589 91.75 38.5742C92.069 38.4896 92.3392 38.4147 92.5605 38.3496C92.7884 38.278 92.9805 38.2227 93.1367 38.1836C93.293 38.138 93.4362 38.1152 93.5664 38.1152C93.7422 38.1152 93.8301 38.1706 93.8301 38.2812C93.8301 38.3398 93.8105 38.3887 93.7715 38.4277C93.7324 38.4668 93.6771 38.5059 93.6055 38.5449C93.5404 38.5775 93.4622 38.6133 93.3711 38.6523C93.2799 38.6914 93.1855 38.7402 93.0879 38.7988C92.8861 38.9225 92.7331 39.0983 92.6289 39.3262C92.5312 39.554 92.4824 39.8926 92.4824 40.3418C92.4824 40.5762 92.4922 40.8301 92.5117 41.1035C92.5312 41.377 92.5508 41.6439 92.5703 41.9043C92.5964 42.1582 92.6224 42.3958 92.6484 42.6172C92.681 42.8385 92.707 43.0143 92.7266 43.1445C92.7591 43.3203 92.7852 43.4961 92.8047 43.6719C92.8307 43.8411 92.8438 43.9714 92.8438 44.0625C92.8438 44.1341 92.8307 44.1927 92.8047 44.2383C92.7786 44.2773 92.7396 44.2969 92.6875 44.2969C92.6094 44.2969 92.5182 44.2676 92.4141 44.209C92.3164 44.1504 92.2025 44.0853 92.0723 44.0137C91.9486 43.9355 91.8151 43.8672 91.6719 43.8086C91.5286 43.75 91.3789 43.7207 91.2227 43.7207C91.0208 43.7207 90.8223 43.763 90.627 43.8477C90.4382 43.9323 90.2363 44.0397 90.0215 44.1699C89.8066 44.2936 89.569 44.4303 89.3086 44.5801C89.0482 44.7298 88.7422 44.8698 88.3906 45C88.0456 45.1237 87.6452 45.2279 87.1895 45.3125C86.7402 45.3971 86.2194 45.4395 85.627 45.4395C84.7806 45.4395 83.9863 45.2962 83.2441 45.0098C82.5085 44.7298 81.8639 44.3262 81.3105 43.7988C80.7637 43.2715 80.3307 42.6367 80.0117 41.8945C79.6992 41.1523 79.543 40.3223 79.543 39.4043C79.543 38.5449 79.6439 37.7702 79.8457 37.0801C80.054 36.39 80.3307 35.7812 80.6758 35.2539C81.0208 34.7201 81.4147 34.2611 81.8574 33.877C82.3001 33.4928 82.7624 33.1738 83.2441 32.9199C83.6087 32.7246 83.9701 32.5651 84.3281 32.4414C84.6927 32.3177 85.0443 32.2201 85.3828 32.1484C85.7214 32.0768 86.0371 32.028 86.3301 32.002C86.6296 31.9759 86.8997 31.9629 87.1406 31.9629ZM97.7559 32.5391C97.7559 32.6172 97.7526 32.7279 97.7461 32.8711C97.7396 33.0078 97.7363 33.151 97.7363 33.3008C97.7363 33.4896 97.7461 33.6914 97.7656 33.9062C97.7917 34.1146 97.821 34.3099 97.8535 34.4922C97.8926 34.668 97.9284 34.8177 97.9609 34.9414C98 35.0586 98.0326 35.1172 98.0586 35.1172C98.0846 35.1172 98.1204 35.0228 98.166 34.834C98.2181 34.6452 98.2897 34.4076 98.3809 34.1211C98.4785 33.8346 98.6022 33.5286 98.752 33.2031C98.9017 32.8711 99.0938 32.5618 99.3281 32.2754C99.5625 31.9889 99.8424 31.7513 100.168 31.5625C100.5 31.3737 100.891 31.2793 101.34 31.2793C101.757 31.2793 102.105 31.3509 102.385 31.4941C102.671 31.6374 102.899 31.8164 103.068 32.0312C103.238 32.2461 103.358 32.4805 103.43 32.7344C103.501 32.9818 103.537 33.2161 103.537 33.4375C103.537 33.7826 103.492 34.0853 103.4 34.3457C103.309 34.5996 103.186 34.8112 103.029 34.9805C102.88 35.1497 102.707 35.2799 102.512 35.3711C102.316 35.4557 102.118 35.498 101.916 35.498C101.545 35.498 101.242 35.4102 101.008 35.2344C100.773 35.0586 100.656 34.8014 100.656 34.4629C100.656 34.2806 100.679 34.1243 100.725 33.9941C100.777 33.8639 100.842 33.7533 100.92 33.6621C101.005 33.571 101.102 33.4961 101.213 33.4375C101.33 33.3724 101.457 33.3203 101.594 33.2812C101.874 33.1966 102.062 33.0924 102.16 32.9688C102.264 32.8451 102.316 32.7018 102.316 32.5391C102.316 32.4414 102.297 32.347 102.258 32.2559C102.225 32.1647 102.167 32.0833 102.082 32.0117C102.004 31.9336 101.9 31.8717 101.77 31.8262C101.646 31.7806 101.493 31.7578 101.311 31.7578C100.939 31.7578 100.614 31.8457 100.334 32.0215C100.054 32.1908 99.8099 32.4219 99.6016 32.7148C99.3932 33.0013 99.2207 33.3333 99.084 33.7109C98.9473 34.0885 98.8366 34.4857 98.752 34.9023C98.6673 35.3125 98.6055 35.7292 98.5664 36.1523C98.5339 36.569 98.5176 36.9596 98.5176 37.3242C98.5176 37.6562 98.5306 38.0176 98.5566 38.4082C98.5827 38.7923 98.6152 39.1797 98.6543 39.5703C98.6999 39.9609 98.7487 40.3418 98.8008 40.7129C98.8529 41.084 98.9017 41.4225 98.9473 41.7285C98.9993 42.0345 99.0449 42.2982 99.084 42.5195C99.123 42.7409 99.1523 42.8939 99.1719 42.9785C99.2435 43.2715 99.3542 43.4766 99.5039 43.5938C99.6602 43.7044 99.8652 43.7598 100.119 43.7598C100.23 43.7598 100.344 43.7565 100.461 43.75C100.585 43.7435 100.676 43.7402 100.734 43.7402C100.91 43.7402 100.998 43.8053 100.998 43.9355C100.998 44.0397 100.949 44.1081 100.852 44.1406C100.773 44.1732 100.633 44.1927 100.432 44.1992C100.236 44.2057 100.005 44.2122 99.7383 44.2188C99.4779 44.2253 99.1947 44.235 98.8887 44.248C98.5827 44.2611 98.2865 44.2839 98 44.3164C97.681 44.3555 97.3717 44.4108 97.0723 44.4824C96.7728 44.5475 96.4961 44.6126 96.2422 44.6777C95.9883 44.7363 95.7637 44.7884 95.5684 44.834C95.373 44.8796 95.2168 44.9023 95.0996 44.9023C94.9759 44.9023 94.8913 44.8763 94.8457 44.8242C94.8001 44.7721 94.7773 44.7168 94.7773 44.6582C94.7773 44.5605 94.8164 44.4922 94.8945 44.4531C94.9792 44.4076 95.0931 44.362 95.2363 44.3164C95.347 44.2839 95.4772 44.2513 95.627 44.2188C95.7832 44.1797 95.9655 44.1146 96.1738 44.0234C96.3822 43.9323 96.5254 43.8118 96.6035 43.6621C96.6882 43.5059 96.7305 43.2715 96.7305 42.959C96.7305 42.8613 96.724 42.6986 96.7109 42.4707C96.6979 42.2363 96.6784 41.9596 96.6523 41.6406C96.6328 41.3216 96.6068 40.9733 96.5742 40.5957C96.5482 40.2116 96.5189 39.821 96.4863 39.4238C96.4538 39.0202 96.418 38.6198 96.3789 38.2227C96.3464 37.8255 96.3138 37.4544 96.2812 37.1094C96.2487 36.7578 96.2161 36.4453 96.1836 36.1719C96.1576 35.8984 96.1348 35.6803 96.1152 35.5176C96.0892 35.3223 96.0501 35.1693 95.998 35.0586C95.946 34.9414 95.8841 34.8535 95.8125 34.7949C95.7409 34.7363 95.6562 34.7005 95.5586 34.6875C95.4674 34.668 95.3665 34.6582 95.2559 34.6582H94.8555C94.8229 34.6582 94.7806 34.6582 94.7285 34.6582C94.6829 34.6517 94.6374 34.6419 94.5918 34.6289C94.5462 34.6094 94.5072 34.5833 94.4746 34.5508C94.4486 34.5182 94.4355 34.4759 94.4355 34.4238C94.4355 34.3522 94.4648 34.3001 94.5234 34.2676C94.582 34.235 94.6536 34.2122 94.7383 34.1992C95.0638 34.1602 95.3568 34.1048 95.6172 34.0332C95.8841 33.9616 96.1445 33.8314 96.3984 33.6426C96.5547 33.5189 96.7174 33.3561 96.8867 33.1543C97.0625 32.946 97.2057 32.7279 97.3164 32.5C97.3945 32.3372 97.4792 32.2559 97.5703 32.2559C97.6549 32.2559 97.707 32.2884 97.7266 32.3535C97.7461 32.4186 97.7559 32.4805 97.7559 32.5391ZM105.334 37.959C105.093 37.959 104.865 37.9134 104.65 37.8223C104.442 37.7311 104.26 37.5944 104.104 37.4121C103.947 37.2298 103.824 37.002 103.732 36.7285C103.641 36.4551 103.596 36.1328 103.596 35.7617C103.596 35.3581 103.651 34.9642 103.762 34.5801C103.879 34.1895 104.058 33.8444 104.299 33.5449C104.54 33.2389 104.846 32.9948 105.217 32.8125C105.594 32.6302 106.047 32.5391 106.574 32.5391C107.01 32.5391 107.395 32.5977 107.727 32.7148C108.065 32.8255 108.361 32.9785 108.615 33.1738C108.869 33.3626 109.084 33.584 109.26 33.8379C109.442 34.0918 109.595 34.3587 109.719 34.6387C109.842 34.9121 109.943 35.1921 110.021 35.4785C110.106 35.7585 110.178 36.0254 110.236 36.2793C110.269 36.4225 110.308 36.6276 110.354 36.8945C110.406 37.1549 110.461 37.4577 110.52 37.8027C110.578 38.1478 110.64 38.5189 110.705 38.916C110.77 39.3066 110.835 39.7038 110.9 40.1074C110.965 40.5111 111.027 40.9049 111.086 41.2891C111.151 41.6667 111.21 42.015 111.262 42.334C111.314 42.6465 111.356 42.9167 111.389 43.1445C111.428 43.3659 111.457 43.5189 111.477 43.6035C111.516 43.8053 111.558 44.0104 111.604 44.2188C111.656 44.4271 111.717 44.6191 111.789 44.7949C111.867 44.9642 111.962 45.1042 112.072 45.2148C112.183 45.3255 112.323 45.3809 112.492 45.3809C112.59 45.3809 112.674 45.3581 112.746 45.3125C112.818 45.2669 112.873 45.2051 112.912 45.127C112.958 45.0488 112.99 44.9609 113.01 44.8633C113.029 44.7656 113.039 44.6647 113.039 44.5605C113.039 44.4368 113.036 44.3132 113.029 44.1895C113.023 44.0592 113.02 43.9486 113.02 43.8574C113.02 43.7598 113.033 43.6751 113.059 43.6035C113.085 43.5319 113.137 43.4961 113.215 43.4961C113.286 43.4961 113.342 43.5384 113.381 43.623C113.426 43.7012 113.459 43.7956 113.479 43.9062C113.505 44.0104 113.521 44.1178 113.527 44.2285C113.534 44.3327 113.537 44.4108 113.537 44.4629C113.537 44.6908 113.518 44.9479 113.479 45.2344C113.439 45.5208 113.358 45.7975 113.234 46.0645C113.117 46.3379 112.922 46.5625 112.648 46.7383C112.375 46.9141 112.059 47.002 111.701 47.002C111.389 47.002 111.118 46.9564 110.891 46.8652C110.669 46.7741 110.477 46.6602 110.314 46.5234C110.158 46.3867 110.025 46.2402 109.914 46.084C109.81 45.9277 109.725 45.7812 109.66 45.6445C109.478 45.293 109.338 44.9089 109.24 44.4922C109.149 44.069 109.074 43.6654 109.016 43.2812C108.918 43.444 108.768 43.6458 108.566 43.8867C108.371 44.1276 108.127 44.3587 107.834 44.5801C107.541 44.8014 107.202 44.9902 106.818 45.1465C106.434 45.3027 106.008 45.3809 105.539 45.3809C105.018 45.3809 104.572 45.306 104.201 45.1562C103.837 45.013 103.537 44.8177 103.303 44.5703C103.068 44.3164 102.896 44.0234 102.785 43.6914C102.674 43.3529 102.619 42.9948 102.619 42.6172C102.619 42.2135 102.694 41.8066 102.844 41.3965C102.993 40.9863 103.238 40.6152 103.576 40.2832C103.921 39.9512 104.367 39.681 104.914 39.4727C105.467 39.2643 106.141 39.1602 106.936 39.1602C107.118 39.1602 107.294 39.1699 107.463 39.1895C107.639 39.2025 107.795 39.2188 107.932 39.2383C108.075 39.2578 108.195 39.2773 108.293 39.2969C108.397 39.3164 108.472 39.3294 108.518 39.3359C108.479 38.776 108.43 38.2161 108.371 37.6562C108.345 37.4219 108.316 37.1745 108.283 36.9141C108.257 36.6536 108.228 36.3932 108.195 36.1328C108.163 35.8659 108.127 35.6055 108.088 35.3516C108.049 35.0977 108.007 34.86 107.961 34.6387C107.857 34.1374 107.652 33.7402 107.346 33.4473C107.046 33.1478 106.662 32.998 106.193 32.998C105.939 32.998 105.715 33.0436 105.52 33.1348C105.331 33.2259 105.168 33.3431 105.031 33.4863C104.901 33.6296 104.803 33.7923 104.738 33.9746C104.673 34.1504 104.641 34.3262 104.641 34.502C104.641 34.6908 104.686 34.8503 104.777 34.9805C104.868 35.1042 104.979 35.2148 105.109 35.3125C105.246 35.4102 105.393 35.5046 105.549 35.5957C105.705 35.6803 105.848 35.7812 105.979 35.8984C106.115 36.0091 106.229 36.1458 106.32 36.3086C106.411 36.4648 106.457 36.6634 106.457 36.9043C106.457 37.2233 106.346 37.4805 106.125 37.6758C105.91 37.8646 105.646 37.959 105.334 37.959ZM108.596 39.9414C108.55 39.9219 108.469 39.8991 108.352 39.873C108.241 39.8405 108.107 39.8112 107.951 39.7852C107.795 39.7526 107.626 39.7266 107.443 39.707C107.268 39.6875 107.092 39.6777 106.916 39.6777C106.571 39.6777 106.249 39.7266 105.949 39.8242C105.656 39.9219 105.402 40.0684 105.188 40.2637C104.973 40.4525 104.803 40.6934 104.68 40.9863C104.556 41.2728 104.494 41.6048 104.494 41.9824C104.494 42.3275 104.549 42.6139 104.66 42.8418C104.777 43.0632 104.924 43.2389 105.1 43.3691C105.282 43.4993 105.48 43.5905 105.695 43.6426C105.917 43.6947 106.132 43.7207 106.34 43.7207C106.672 43.7207 106.988 43.6686 107.287 43.5645C107.587 43.4603 107.85 43.3398 108.078 43.2031C108.306 43.0664 108.492 42.9329 108.635 42.8027C108.778 42.6725 108.866 42.5846 108.898 42.5391C108.853 42.1029 108.811 41.7057 108.771 41.3477C108.752 41.1914 108.732 41.0384 108.713 40.8887C108.7 40.7389 108.684 40.599 108.664 40.4688C108.651 40.3385 108.638 40.2279 108.625 40.1367C108.612 40.0456 108.602 39.9805 108.596 39.9414ZM119.836 32.4805C120.103 32.4805 120.327 32.4935 120.51 32.5195C120.699 32.5456 120.858 32.5781 120.988 32.6172C121.125 32.6497 121.242 32.679 121.34 32.7051C121.438 32.7311 121.535 32.7441 121.633 32.7441C121.743 32.7441 121.828 32.6855 121.887 32.5684C121.952 32.4512 122.014 32.3079 122.072 32.1387C122.157 31.9108 122.258 31.7969 122.375 31.7969C122.479 31.7969 122.544 31.8294 122.57 31.8945C122.603 31.9596 122.619 32.0215 122.619 32.0801C122.619 32.1582 122.609 32.2396 122.59 32.3242C122.577 32.4023 122.554 32.5065 122.521 32.6367C122.489 32.7669 122.45 32.9297 122.404 33.125C122.365 33.3203 122.323 33.5645 122.277 33.8574C122.238 34.0983 122.206 34.3066 122.18 34.4824C122.16 34.6582 122.144 34.8145 122.131 34.9512C122.124 35.0879 122.115 35.2116 122.102 35.3223C122.089 35.4329 122.072 35.5469 122.053 35.6641C122.014 35.9115 121.929 36.0352 121.799 36.0352C121.714 36.0352 121.659 35.9961 121.633 35.918C121.607 35.8333 121.594 35.7422 121.594 35.6445V34.8828C121.594 34.4987 121.548 34.1764 121.457 33.916C121.372 33.6556 121.252 33.4473 121.096 33.291C120.946 33.1348 120.764 33.0241 120.549 32.959C120.34 32.8939 120.116 32.8613 119.875 32.8613C119.66 32.8613 119.452 32.8971 119.25 32.9688C119.055 33.0404 118.882 33.1478 118.732 33.291C118.583 33.4277 118.462 33.597 118.371 33.7988C118.28 34.0007 118.234 34.2285 118.234 34.4824C118.234 34.8145 118.312 35.1367 118.469 35.4492C118.625 35.7617 118.83 36.0677 119.084 36.3672C119.338 36.6667 119.624 36.9694 119.943 37.2754C120.269 37.5749 120.601 37.8841 120.939 38.2031C121.285 38.5221 121.617 38.8542 121.936 39.1992C122.261 39.5443 122.551 39.9121 122.805 40.3027C123.059 40.6868 123.264 41.097 123.42 41.5332C123.576 41.9694 123.654 42.4382 123.654 42.9395C123.654 43.61 123.55 44.2057 123.342 44.7266C123.133 45.2409 122.854 45.6738 122.502 46.0254C122.15 46.377 121.74 46.6439 121.271 46.8262C120.803 47.0085 120.305 47.0996 119.777 47.0996C119.413 47.0996 119.071 47.0605 118.752 46.9824C118.439 46.9043 118.15 46.8034 117.883 46.6797C117.622 46.556 117.388 46.4128 117.18 46.25C116.971 46.0938 116.796 45.9375 116.652 45.7812C116.385 45.4818 116.158 45.2539 115.969 45.0977C115.78 44.9414 115.575 44.8633 115.354 44.8633C115.236 44.8633 115.109 44.9056 114.973 44.9902C114.836 45.0749 114.699 45.166 114.562 45.2637C114.432 45.3613 114.309 45.4525 114.191 45.5371C114.074 45.6217 113.977 45.6641 113.898 45.6641C113.827 45.6641 113.775 45.6413 113.742 45.5957C113.71 45.5566 113.693 45.5176 113.693 45.4785C113.693 45.4004 113.742 45.3158 113.84 45.2246C113.879 45.1855 113.954 45.1139 114.064 45.0098C114.182 44.9056 114.325 44.7689 114.494 44.5996C114.663 44.4303 114.852 44.222 115.061 43.9746C115.275 43.7272 115.5 43.4408 115.734 43.1152C115.956 42.8092 116.138 42.5228 116.281 42.2559C116.424 41.9824 116.548 41.748 116.652 41.5527C116.757 41.3509 116.848 41.1914 116.926 41.0742C117.01 40.957 117.102 40.8984 117.199 40.8984C117.297 40.8984 117.359 40.9277 117.385 40.9863C117.417 41.0449 117.434 41.11 117.434 41.1816C117.434 41.2793 117.398 41.4062 117.326 41.5625C117.255 41.7188 117.176 41.9076 117.092 42.1289C117.014 42.3503 116.939 42.6074 116.867 42.9004C116.796 43.1934 116.76 43.5254 116.76 43.8965C116.76 44.1113 116.802 44.362 116.887 44.6484C116.971 44.9349 117.108 45.2051 117.297 45.459C117.486 45.7129 117.733 45.9277 118.039 46.1035C118.352 46.2858 118.729 46.377 119.172 46.377C119.523 46.377 119.839 46.3118 120.119 46.1816C120.406 46.0514 120.65 45.8659 120.852 45.625C121.053 45.3906 121.206 45.1107 121.311 44.7852C121.421 44.4531 121.477 44.0853 121.477 43.6816C121.477 43.1673 121.356 42.6725 121.115 42.1973C120.874 41.7155 120.572 41.2467 120.207 40.791C119.842 40.3288 119.449 39.8763 119.025 39.4336C118.602 38.9909 118.208 38.5514 117.844 38.1152C117.479 37.6725 117.176 37.2298 116.936 36.7871C116.695 36.3444 116.574 35.8952 116.574 35.4395C116.574 34.9316 116.669 34.4922 116.857 34.1211C117.046 33.7435 117.294 33.4342 117.6 33.1934C117.912 32.9525 118.26 32.7734 118.645 32.6562C119.035 32.5391 119.432 32.4805 119.836 32.4805Z" fill="#A924A4"/>
</g>
<path d="M133.089 29.1738C133.052 29.1013 132.948 29.1013 132.911 29.1738L130.32 34.2342C130.305 34.2626 130.278 34.2823 130.247 34.2874L124.633 35.1879C124.553 35.2008 124.521 35.2995 124.578 35.3572L128.59 39.3852C128.613 39.4078 128.623 39.4398 128.618 39.4713L127.74 45.0882C127.728 45.1687 127.811 45.2297 127.884 45.1928L132.955 42.6219C132.983 42.6075 133.017 42.6075 133.045 42.6219L138.116 45.1928C138.189 45.2297 138.272 45.1687 138.26 45.0882L137.382 39.4713C137.377 39.4398 137.387 39.4078 137.41 39.3852L141.422 35.3572C141.479 35.2995 141.447 35.2008 141.367 35.1879L135.753 34.2874C135.722 34.2823 135.695 34.2626 135.68 34.2342L133.089 29.1738Z" fill="#72B952"/>
<path d="M13.089 31.1738C13.0519 31.1013 12.9481 31.1013 12.911 31.1738L10.3199 36.2342C10.3054 36.2626 10.2782 36.2823 10.2467 36.2874L4.63332 37.1879C4.55283 37.2008 4.52078 37.2995 4.57831 37.3572L8.59031 41.3852C8.6128 41.4078 8.62318 41.4398 8.61826 41.4713L7.7401 47.0882C7.72751 47.1687 7.81141 47.2297 7.88412 47.1928L12.9548 44.6219C12.9832 44.6075 13.0168 44.6075 13.0452 44.6219L18.1159 47.1928C18.1886 47.2297 18.2725 47.1687 18.2599 47.0882L17.3817 41.4713C17.3768 41.4398 17.3872 41.4078 17.4097 41.3852L21.4217 37.3572C21.4792 37.2995 21.4472 37.2008 21.3667 37.1879L15.7533 36.2874C15.7218 36.2823 15.6946 36.2626 15.6801 36.2342L13.089 31.1738Z" fill="#72B952"/>
<defs>
<filter id="filter0_d_950_10851" x="18.3359" y="25.1758" width="109.318" height="29.9238" filterUnits="userSpaceOnUse" color-interpolation-filters="sRGB">
<feFlood flood-opacity="0" result="BackgroundImageFix"/>
<feColorMatrix in="SourceAlpha" type="matrix" values="0 0 0 0 0 0 0 0 0 0 0 0 0 0 0 0 0 0 127 0" result="hardAlpha"/>
<feOffset dy="4"/>
<feGaussianBlur stdDeviation="2"/>
<feComposite in2="hardAlpha" operator="out"/>
<feColorMatrix type="matrix" values="0 0 0 0 0 0 0 0 0 0 0 0 0 0 0 0 0 0 0.25 0"/>
<feBlend mode="normal" in2="BackgroundImageFix" result="effect1_dropShadow_950_10851"/>
<feBlend mode="normal" in="SourceGraphic" in2="effect1_dropShadow_950_10851" result="shape"/>
</filter>
</defs>
</svg>
